<svg width="85" height="85" viewBox="0 0 85 85" fill="none" xmlns="http://www.w3.org/2000/svg">
<path d="M65.3252 85H19.6748C14.4567 85 9.45231 82.927 5.76256 79.2373C2.07281 75.5475 0 70.5431 0 65.325V19.6748C0 14.4567 2.07281 9.45231 5.76256 5.76256C9.45231 2.07281 14.4567 0 19.6748 0H65.3252C70.5433 0 75.5477 2.07281 79.2374 5.76256C82.9272 9.45231 85 14.4567 85 19.6748V65.325C85 70.5431 82.9272 75.5475 79.2374 79.2373C75.5477 82.927 70.5433 85 65.3252 85Z" fill="#4F2496"/>
<path fill-rule="evenodd" clip-rule="evenodd" d="M42.4996 56.2652C45.2212 56.2647 47.8816 55.4573 50.1444 53.9449C52.4071 52.4325 54.1705 50.2832 55.2118 47.7686C56.253 45.254 56.5253 42.4872 55.9942 39.8179C55.4631 37.1485 54.1525 34.6966 52.228 32.7721C50.3035 30.8476 47.8517 29.5369 45.1824 29.0058C42.5131 28.4747 39.7461 28.7471 37.2315 29.7883C34.7169 30.8296 32.5676 32.5931 31.0552 34.8559C29.5428 37.1186 28.7354 39.779 28.7349 42.5007C28.7349 46.1513 30.1849 49.6523 32.7663 52.2337C35.3476 54.8151 38.8489 56.2652 42.4996 56.2652ZM42.4996 51.6779C44.314 51.6779 46.0877 51.1399 47.5964 50.1319C49.1052 49.1239 50.281 47.6912 50.9754 46.0149C51.6699 44.3386 51.8519 42.494 51.4981 40.7144C51.1443 38.9348 50.2706 37.2999 48.9878 36.0167C47.705 34.7335 46.0706 33.8595 44.291 33.5052C42.5115 33.1509 40.6667 33.3323 38.9902 34.0263C37.3137 34.7203 35.8807 35.8957 34.8723 37.4041C33.8638 38.9126 33.3255 40.6862 33.3249 42.5007C33.3249 44.9342 34.2915 47.2681 36.012 48.9891C37.7325 50.7101 40.066 51.6772 42.4996 51.6779Z" fill="#FF9650"/>
<path d="M56.265 26.4434C55.8118 26.4439 55.3689 26.5787 54.9923 26.8308C54.6157 27.0829 54.3224 27.4409 54.1492 27.8597C53.9761 28.2784 53.931 28.7392 54.0195 29.1836C54.1081 29.628 54.3262 30.0363 54.6466 30.3567C54.9671 30.6772 55.3754 30.8954 55.8198 30.984C56.2642 31.0725 56.7249 31.0273 57.1437 30.8541C57.5625 30.6809 57.9204 30.3875 58.1725 30.0109C58.4246 29.6343 58.5595 29.1916 58.56 28.7384C58.56 28.437 58.5006 28.1386 58.3852 27.8602C58.2699 27.5817 58.101 27.3286 57.8878 27.1155C57.6747 26.9024 57.4215 26.7335 57.143 26.6181C56.8646 26.5028 56.5664 26.4434 56.265 26.4434Z" fill="#FF9650"/>
<path fill-rule="evenodd" clip-rule="evenodd" d="M18.7663 24.793C17.2655 27.7387 17.2656 31.5929 17.2656 39.3013V45.7242C17.2656 53.4273 17.2655 57.2869 18.7663 60.23C20.0858 62.8198 22.1909 64.9258 24.7801 66.2464C27.7259 67.7472 31.5802 67.7471 39.2886 67.7471H45.7114C53.4145 67.7471 57.2741 67.7472 60.2199 66.2464C62.8092 64.9259 64.9141 62.8199 66.2334 60.23C67.7342 57.2869 67.7344 53.4327 67.7344 45.7242V39.3013C67.7344 31.5982 67.7342 27.7387 66.2334 24.793C64.9148 22.2032 62.8097 20.0977 60.2199 18.7791C57.2741 17.2783 53.4198 17.2783 45.7114 17.2783H39.2886C31.5855 17.2783 27.7259 17.2783 24.7801 18.7791C22.1904 20.0979 20.085 22.2033 18.7663 24.793ZM45.7114 21.871H39.2886C35.3574 21.871 32.6877 21.871 30.6211 22.0436C29.3261 22.0715 28.0494 22.3531 26.8628 22.8724C25.1365 23.7512 23.7331 25.1546 22.8544 26.8808C22.3347 28.0673 22.0531 29.3443 22.0256 30.6393C21.8583 32.7032 21.8528 35.3754 21.8528 39.3067V45.7294C21.8528 49.658 21.8529 52.3302 22.0256 54.3968C22.053 55.6909 22.3347 56.9671 22.8544 58.1527C23.7331 59.8796 25.1364 61.2838 26.8628 62.1637C28.0494 62.683 29.3261 62.9646 30.6211 62.9924C32.6877 63.1598 35.3574 63.1625 39.2886 63.1625H45.7114C49.6426 63.1625 52.312 63.1624 54.3785 62.9924C55.6727 62.965 56.9491 62.6834 58.1347 62.1637C59.8617 61.2839 61.2659 59.8798 62.1456 58.1527C62.6652 56.9671 62.9468 55.6909 62.9744 54.3968C63.1417 52.3302 63.1469 49.658 63.1469 45.7294V39.3067C63.1469 35.3754 63.1471 32.7032 62.9744 30.6393C62.9468 29.3443 62.6652 28.0674 62.1456 26.8808C61.2657 25.1545 59.8616 23.7512 58.1347 22.8724C56.9491 22.3527 55.6727 22.0711 54.3785 22.0436C52.312 21.8736 49.6426 21.871 45.7114 21.871Z" fill="#FF9650"/>
</svg>
